<svg id="svg" version="1.1" xmlns="http://www.w3.org/2000/svg" xmlns:xlink="http://www.w3.org/1999/xlink" width="400" height="334.11764705882354" viewBox="0, 0, 400,334.11764705882354">
	<g id="svgg">
		<path id="path0" d="M196.471 3.981 C 118.112 10.568,50.793 58.383,31.864 120.896 C 11.548 187.985,52.558 253.049,129.221 275.358 C 133.321 276.551,130.475 281.525,149.009 240.784 C 167.588 199.945,166.252 203.486,163.308 202.897 C 154.459 201.127,136.507 190.663,128.440 182.572 C 80.221 134.211,141.009 57.272,219.154 67.757 C 224.297 68.447,228.576 68.925,228.665 68.820 C 228.753 68.714,230.080 65.804,231.613 62.353 C 233.147 58.902,239.340 45.314,245.376 32.157 C 251.412 19.000,256.113 8.003,255.823 7.720 C 252.764 4.735,215.457 2.385,196.471 3.981 M256.964 44.902 C 255.836 47.526,243.058 76.193,241.145 80.392 C 228.927 107.208,229.395 105.505,233.922 106.708 C 282.767 119.692,302.132 166.186,275.718 207.059 C 257.523 235.215,214.951 252.605,178.824 246.639 C 164.386 244.255,168.050 240.462,153.421 272.941 C 129.215 326.682,131.901 319.664,135.130 320.730 C 174.590 333.753,237.370 327.242,281.961 305.502 C 414.735 240.769,407.149 83.418,269.388 44.735 C 258.750 41.748,258.318 41.754,256.964 44.902 M136.653 127.255 C 135.728 128.397,152.270 178.697,153.914 179.741 C 155.548 180.779,165.988 180.513,166.850 179.412 C 168.957 176.720,184.476 127.643,183.429 126.980 C 181.815 125.957,176.154 126.137,174.788 127.255 C 174.129 127.794,170.831 137.235,167.458 148.235 C 164.086 159.235,161.204 168.382,161.055 168.562 C 160.421 169.326,159.590 167.020,153.738 148.277 C 150.352 137.429,147.156 128.040,146.636 127.414 C 145.445 125.979,137.785 125.857,136.653 127.255 M193.137 127.083 L 191.373 127.793 191.373 153.212 C 191.373 174.983,191.543 178.773,192.563 179.619 C 194.350 181.103,214.798 180.195,220.193 178.393 C 239.563 171.923,241.622 139.066,223.247 129.677 C 217.661 126.823,197.999 125.129,193.137 127.083 M246.078 126.815 C 244.806 127.148,244.706 129.081,244.706 153.376 L 244.706 179.578 246.534 180.037 C 247.539 180.289,249.921 180.384,251.828 180.248 L 255.294 180.000 255.501 153.778 C 255.662 133.323,255.490 127.419,254.717 126.928 C 253.678 126.269,248.431 126.200,246.078 126.815 M217.122 137.274 C 227.114 142.891,226.942 164.464,216.862 169.717 C 214.789 170.797,211.806 171.450,208.068 171.642 L 202.411 171.933 202.186 154.195 C 202.062 144.439,202.093 136.063,202.255 135.583 C 202.790 133.989,213.431 135.200,217.122 137.274 " stroke="none" fill="#0972ba" fill-rule="evenodd">
		</path>
	</g>
</svg>
